<svg xmlns="http://www.w3.org/2000/svg" viewBox="0 0 24 24" id="yamaha">
  <path fill="#455A64" d="M23.912 11.913c0 6.627-5.372 12-12 12-6.627 0-12-5.372-12-12s5.373-12 12-12c6.628-.001 12 5.372 12 12z"></path>
  <path fill="#CFD8DC" d="M13.65 20a.75.75 0 0 1-.75-.75V8.766c0-.296-.084-.576-.236-.789-.557-.777-.675-1.868-.3-2.78l.013-.032L12 4.418l-.377.748.014.033c.374.911.256 2.002-.301 2.778a1.358 1.358 0 0 0-.236.789V19.25a.75.75 0 0 1-1.5 0V8.766c0-.606.184-1.197.518-1.663.258-.361.312-.898.132-1.336l-.144-.35a.752.752 0 0 1 .024-.621l1.2-2.383c.256-.506 1.084-.506 1.34 0l1.2 2.383a.749.749 0 0 1 .024.621l-.143.349c-.181.44-.127.977.131 1.338a2.86 2.86 0 0 1 .518 1.662V19.25a.75.75 0 0 1-.75.75z"></path>
  <path fill="#CFD8DC" d="m20.25 17.8-.043-.002-2.664-.152a.747.747 0 0 1-.55-.29l-.23-.298c-.291-.375-.78-.602-1.225-.555a2.867 2.867 0 0 1-1.698-.384l-9.079-5.242a.75.75 0 0 1 .75-1.297l9.079 5.242c.256.148.538.215.801.189.954-.092 1.955.35 2.558 1.13l.022.027.836.048-.495-.705c-.975-.132-1.86-.78-2.255-1.649a1.363 1.363 0 0 0-.564-.599L6.41 8.02a.75.75 0 0 1 .75-1.298l9.08 5.242c.523.302.943.755 1.181 1.278.184.405.623.72 1.092.783l.375.051a.75.75 0 0 1 .525.332l1.464 2.23a.751.751 0 0 1-.627 1.162z"></path>
  <path fill="#CFD8DC" d="M3.75 17.8a.751.751 0 0 1-.628-1.162l1.464-2.23a.754.754 0 0 1 .525-.332l.374-.051c.47-.063.909-.379 1.093-.783a2.867 2.867 0 0 1 1.181-1.279l9.079-5.242a.749.749 0 1 1 .75 1.298l-9.08 5.242a1.37 1.37 0 0 0-.566.6c-.394.869-1.28 1.516-2.256 1.648l-.035.005-.459.7.858-.075c.603-.78 1.616-1.221 2.557-1.13.26.027.545-.042.802-.189l9.079-5.242a.749.749 0 1 1 .75 1.298L10.16 16.12a2.839 2.839 0 0 1-1.699.384c-.438-.045-.934.179-1.224.555l-.23.298a.747.747 0 0 1-.55.29l-2.664.152-.043.001z"></path>
  <path fill="#3C4E57" d="m12 4.418-.377.748.014.033c.374.911.256 2.002-.301 2.778a1.358 1.358 0 0 0-.236.789v.23l.9.52V4.418zM12 0h-1.544A12.007 12.007 0 0 0 0 10.452v2.922c.721 5.939 5.779 10.539 11.912 10.539H12v-8.854l-.9.52v3.672a.75.75 0 0 1-1.5 0v-2.877a2.773 2.773 0 0 1-1.138.131 1.088 1.088 0 0 0-.114-.006c-.408 0-.845.217-1.11.561l-.23.298a.747.747 0 0 1-.55.29l-2.664.152H3.75a.751.751 0 0 1-.628-1.162l1.464-2.23a.754.754 0 0 1 .525-.332l.374-.051c.47-.063.909-.379 1.093-.783.156-.344.391-.658.684-.919L4.76 10.878a.75.75 0 0 1 .75-1.299l3.19 1.842.899-.519v-1.04L6.41 8.02a.75.75 0 0 1 .75-1.298l2.5 1.443c.079-.388.235-.752.457-1.062.258-.361.312-.898.132-1.336l-.144-.35a.752.752 0 0 1 .024-.621l1.2-2.383c.128-.253.399-.38.67-.38V0H12z"></path>
  <path fill="#B4BCC0" d="m11.1 15.578-.94.542c-.18.104-.368.189-.561.253v2.877a.75.75 0 0 0 1.5 0v-3.672h.001zM9.599 9.862v1.04l.901-.52-.901-.52zM12 2.033c-.271 0-.542.126-.67.38l-1.2 2.383a.749.749 0 0 0-.024.621l.144.35c.18.438.126.975-.132 1.336a2.78 2.78 0 0 0-.458 1.062l1.44.831v-.23c0-.296.084-.576.236-.789.557-.777.675-1.868.301-2.778l-.014-.033.377-.748V2.033z"></path>
  <path fill="#B4BCC0" d="M5.136 9.478a.75.75 0 0 0-.375 1.4l2.502 1.445c.152-.135.318-.256.498-.36l.94-.542-3.19-1.841a.746.746 0 0 0-.375-.102zm1.649-2.857A.75.75 0 0 0 6.41 8.02l3.189 1.841.901.52 1.5-.865-.9-.52-1.44-.831-2.5-1.443a.744.744 0 0 0-.375-.101z"></path>
  <path fill="#3C4E57" d="m8.7 13.153-.19.11a1.37 1.37 0 0 0-.566.6c-.394.869-1.28 1.516-2.256 1.648l-.035.005-.459.7.858-.075a2.992 2.992 0 0 1 2.311-1.142c.082 0 .164.004.245.012.037.004.076.006.114.006.228 0 .468-.069.688-.195l.189-.109v-1.04l-.899-.52zm3.3-1.905-.9.52v1.039l.9.52v-2.079z"></path>
  <path fill="#B4BCC0" d="M9.599 13.672v1.04l.901-.52-.901-.52zm1.501-1.905-.9.519.9.52v-1.039z"></path>
  <path fill="#B4BCC0" d="m10.2 12.287-1.5.866.899.519.901.52 1.5-.866-.9-.52-.9-.519z"></path>
  <path fill="#B4BCC0" d="m12 9.516-1.5.866-.901.52-.899.519-.94.542a2.965 2.965 0 0 0-.498.36 2.787 2.787 0 0 0-.684.919c-.184.404-.623.719-1.093.783l-.374.051a.75.75 0 0 0-.525.332l-1.464 2.23A.751.751 0 0 0 3.75 17.8l.043-.002 2.664-.152a.747.747 0 0 0 .55-.29l.23-.298a1.46 1.46 0 0 1 1.11-.561c.038 0 .076.002.114.006a2.773 2.773 0 0 0 1.138-.131c.193-.064.381-.149.561-.253l.94-.542.9-.52v-1.732l-1.5.866-.901.52-.189.11c-.22.126-.46.195-.688.195-.038 0-.076-.002-.114-.006a2.496 2.496 0 0 0-.245-.012c-.867 0-1.76.429-2.311 1.142l-.858.075.459-.7.035-.005c.976-.132 1.861-.78 2.256-1.648.109-.24.31-.453.566-.6l.19-.11 1.5-.866.9-.519.9-.52V9.516z"></path>
</svg>
